<?xml version="1.0" encoding="UTF-8"?>
<svg id="Layer_2" data-name="Layer 2" xmlns="http://www.w3.org/2000/svg" viewBox="0 0 32 32">
  <defs>
    <style>
      .cls-1 {
        fill: #fff;
      }

      .cls-2 {
        fill: #ff931e;
      }
    </style>
  </defs>
  <g id="Layer_1-2" data-name="Layer 1">
    <g>
      <circle class="cls-1" cx="16" cy="16" r="15.5"/>
      <path class="cls-2" d="m16,1c8.27,0,15,6.73,15,15s-6.73,15-15,15S1,24.27,1,16,7.73,1,16,1m0-1C7.16,0,0,7.16,0,16s7.16,16,16,16,16-7.16,16-16S24.84,0,16,0h0Z"/>
    </g>
    <path class="cls-2" d="m7.14,12.79c-.36.24-.4.29-.12.13-.41.17-.45.2-.12.08.22-.06.44-.14.66-.2.47-.13,1.09-.37,1.58-.34-.4.05-.42.05-.07.01.16-.02.32-.03.48-.05.24-.02.49-.04.73-.06.61-.04,1.22-.08,1.82-.12,2.41-.18,4.9-.57,6.95-1.96,1.3-.88,2-2.68,1.08-4.1-.83-1.29-2.72-2.02-4.1-1.08-.23.16-.47.31-.72.44-.12.07-.25.13-.38.18.4-.16.44-.18.13-.07-.47.15-.94.29-1.43.39-.25.05-.58.16-.84.14l.38-.05c-.15.02-.3.03-.45.05-.61.06-1.21.09-1.82.13-2.63.17-5.95.35-7.99,2.24-1.16,1.07-1.16,3.18,0,4.24,1.24,1.14,3.01,1.14,4.24,0h0Z"/>
    <path class="cls-2" d="m9.2,11.08c.01.26,0,.52-.03.78l.11-.8c-.14.86-.43,1.7-.71,2.52-.14.43-.29.86-.46,1.28-.28.72.21-.45-.04.1-.08.18-.16.36-.24.54-.73,1.59-1.5,3.17-2.26,4.75-.35.74-.53,1.5-.3,2.31.19.7.73,1.45,1.38,1.79,1.34.71,3.38.44,4.1-1.08.85-1.79,1.75-3.56,2.54-5.38.47-1.09.89-2.19,1.25-3.32s.7-2.3.65-3.5c-.07-1.57-1.33-3.07-3-3-1.57.07-3.08,1.32-3,3h0Z"/>
    <path class="cls-2" d="m22,18.35c.06.04.52.47.19.12-.06-.07-.13-.13-.19-.19-.08-.09-.32-.41-.06-.04s.07.09.02.02c-.13-.2-.26-.4-.38-.62-.04-.08-.08-.16-.12-.24-.27-.55.1.05.05.14.04-.07-.18-.53-.22-.64-.06-.22-.11-.44-.16-.66-.13-.53.05.17.02.22.02-.02-.03-.39-.03-.39-.01-.26,0-.51,0-.77,0-.29.17-.29-.04.22.03-.08.04-.2.06-.28.04-.2.18-.45.19-.65-.03.46-.25.5-.1.24.05-.09.1-.19.16-.28.04-.07.09-.14.13-.21.17-.3-.47.52-.13.15.13-.14.26-.28.4-.41.5-.46-.45.27-.03.03.09-.05.19-.11.28-.16.19-.13.44-.09-.28.1.14-.04.48-.24.61-.18.02,0-.84.04-.32.05.09,0,.17,0,.26,0,.12,0,.56.04.09-.01-.44-.05-.11-.01-.01.01.26.07.51.14.76.22.09.03.18.07.28.11.36.13-.56-.27-.1-.04.18.09.37.17.55.28.1.06.44.28.05.01-.35-.24-.12-.09-.04,0-.51-.58-.24-.37-.15-.19.04.07.13.27.17.31,0,0-.22-.61-.13-.31.04.14.1.28.14.42.13.44.23.89.31,1.34.05.27.1.55.14.83.01.08.06.45,0,.02-.07-.49.01.12.02.23.05.45.06.89.06,1.34,0,.52,0-.19.05-.24-.03.02-.08.35-.08.36-.02.09-.15.39.03-.01.22-.52-.1.08-.1.11,0-.04.49-.58.15-.23-.28.29.12-.11.22-.15-.11.04-.88.48-.38.25.43-.2.12-.05.02-.02-.16.04-.32.09-.48.12-.12.02-.56.09-.09.03.52-.07-.13,0-.19,0-.69.05-1.36.07-2.05.19-.92.15-1.67.63-2.38,1.21-1.21,1-1.12,3.22,0,4.24,1.29,1.18,2.95,1.07,4.24,0l-.34.27c-.45.17-.56.21-.34.15l.08-.02c.32-.07.22-.06-.29.02.21.03.47-.03.69-.04.85-.04,1.73-.11,2.56-.33,1.57-.42,3.1-1.43,3.9-2.88s.88-3,.7-4.57c-.16-1.42-.33-2.95-.85-4.3-.64-1.66-1.68-2.93-3.33-3.66-1.41-.62-2.89-1.18-4.46-1-3.18.36-5.84,2.79-6.42,5.97-.31,1.7-.21,3.49.4,5.12.29.77.62,1.56,1.09,2.25.65.93,1.29,1.55,2.19,2.24.57.44,1.65.48,2.31.3.7-.19,1.45-.73,1.79-1.38.37-.7.55-1.54.3-2.31s-.72-1.29-1.38-1.79h0Z"/>
    <path class="cls-2" d="m14.59,26.35c3.86,0,3.87-6,0-6s-3.87,6,0,6h0Z"/>
    <path d="m4.95,12.07c.9-.68,1.88-1.2,2.98-1.49,1.16-.31,2.32-.25,3.5-.31,2.63-.13,5-1.17,7.35-2.28.73-.35.92-1.4.54-2.05-.44-.75-1.32-.88-2.05-.54-1.08.51-2.17,1.02-3.31,1.39s-2.3.49-3.54.51c-2.53.04-4.93.65-6.97,2.19-.65.49-.98,1.3-.54,2.05.37.64,1.4,1.03,2.05.54h0Z"/>
    <path d="m10.45,9.39c.04,4.49-1.16,8.87-3.47,12.72-1,1.66,1.6,3.17,2.59,1.51,2.57-4.28,3.92-9.24,3.88-14.23-.02-1.93-3.02-1.93-3,0h0Z"/>
    <path d="m14.7,24.93c1.93,0,1.93-3,0-3s-1.93,3,0,3h0Z"/>
    <path d="m24.03,20.89c-.09.05-.66-.02-.72-.03-.45-.07-.86-.23-1.25-.44-.72-.4-1.35-.95-1.85-1.61-1.16-1.54-1.47-3.29-.81-5.09.15-.41.28-.85.53-1.2.16-.23.45-.34.74-.45.85-.33,1.83-.56,2.73-.36,1.77.39,2.41,2.41,2.62,4.02.25,1.89-.33,4.03-1.86,5.15-.65.48-.98,1.3-.54,2.05.38.64,1.4,1.02,2.05.54,2.31-1.7,3.54-4.42,3.38-7.28s-1.38-6.12-4.29-7.2c-2.57-.95-6.56-.05-7.73,2.61-.59,1.35-1.11,2.74-1.03,4.24s.54,2.85,1.31,4.07c.83,1.31,1.99,2.49,3.38,3.2s3.34,1.16,4.83.38c.72-.38.93-1.38.54-2.05-.42-.73-1.33-.92-2.05-.54h0Z"/>
  </g>
</svg>